<svg xmlns="http://www.w3.org/2000/svg" xmlns:xlink="http://www.w3.org/1999/xlink" width="32px" height="32px" viewBox="0 0 32 31" version="1.1">
<g id="surface1">
<path style=" stroke:none;fill-rule:nonzero;fill:#f4f4f4;fill-opacity:1;" d="M 14.378906 9.113281 C 13.789062 9.707031 13.300781 10.21875 13.292969 10.246094 C 13.285156 10.28125 13.773438 10.800781 14.375 11.398438 L 15.472656 12.484375 L 15.472656 12.039062 L 15.476562 11.601562 L 15.734375 11.601562 C 16.050781 11.601562 16.605469 11.761719 16.988281 11.96875 C 17.648438 12.324219 18.285156 13.128906 18.484375 13.859375 C 18.59375 14.265625 18.59375 14.988281 18.484375 15.398438 C 18.207031 16.441406 17.339844 17.289062 16.234375 17.605469 C 15.949219 17.691406 15.546875 17.699219 11.164062 17.714844 C 7.871094 17.730469 6.390625 17.75 6.34375 17.789062 C 6.242188 17.871094 6.242188 20.023438 6.347656 20.105469 C 6.398438 20.144531 7.703125 20.160156 11.242188 20.160156 C 15.90625 20.160156 16.082031 20.15625 16.597656 20.054688 C 18.546875 19.667969 20.167969 18.277344 20.84375 16.410156 C 21.078125 15.753906 21.140625 15.296875 21.109375 14.441406 C 21.078125 13.492188 20.945312 12.960938 20.550781 12.175781 C 19.964844 11.007812 19.085938 10.160156 17.867188 9.597656 C 17.246094 9.308594 16.679688 9.167969 16.015625 9.132812 L 15.480469 9.101562 L 15.449219 8.039062 Z M 14.378906 9.113281 "/>
<path style=" stroke:none;fill-rule:nonzero;fill:#f4f4f4;fill-opacity:1;" d="M 13.246094 9.492188 C 11.875 10.03125 10.703125 11.148438 10.136719 12.472656 C 9.511719 13.945312 9.554688 15.546875 10.257812 17.03125 L 10.421875 17.375 L 12.160156 17.375 C 13.125 17.375 13.910156 17.367188 13.910156 17.359375 C 13.910156 17.347656 13.792969 17.269531 13.652344 17.183594 C 13.328125 16.972656 12.867188 16.496094 12.664062 16.148438 C 12.097656 15.1875 12.140625 13.898438 12.757812 12.984375 C 13.023438 12.59375 13.507812 12.15625 13.910156 11.945312 C 14.082031 11.851562 14.222656 11.761719 14.222656 11.746094 C 14.222656 11.730469 13.902344 11.390625 13.507812 10.996094 L 12.792969 10.277344 L 13.285156 9.796875 C 13.554688 9.53125 13.75 9.320312 13.726562 9.320312 C 13.695312 9.324219 13.480469 9.402344 13.246094 9.492188 Z M 13.246094 9.492188 "/>
<path style=" stroke:none;fill-rule:nonzero;fill:#f4f4f4;fill-opacity:1;" d="M 23.84375 17.230469 L 23.84375 17.730469 L 22.210938 17.730469 L 20.574219 17.734375 L 20.390625 17.992188 C 19.753906 18.902344 18.578125 19.820312 17.703125 20.089844 C 17.527344 20.144531 18.003906 20.15625 20.667969 20.15625 L 23.84375 20.160156 L 23.84375 20.652344 L 23.847656 21.148438 L 24.941406 20.058594 C 25.542969 19.460938 26.035156 18.960938 26.035156 18.945312 C 26.035156 18.929688 25.542969 18.429688 24.941406 17.828125 L 23.847656 16.742188 Z M 23.84375 17.230469 "/>
</g>
</svg>