<svg xmlns="http://www.w3.org/2000/svg" xmlns:xlink="http://www.w3.org/1999/xlink" version="1.1" width="24" height="24" viewBox="0 0 24 24" data-tags="hexagon"><g fill="#f4f4f4" transform="scale(0.0234375 0.0234375)"><path d="M853.333 682.667c-0.043 5.163-1.067 10.496-2.987 15.445-3.413 8.789-9.6 16.384-18.176 21.333l-298.624 170.624c-4.779 2.731-9.899 4.48-15.147 5.291-9.301 1.451-18.987-0.128-27.904-5.291l-298.283-170.453c-4.736-2.773-8.832-6.315-12.16-10.453-5.931-7.296-9.387-16.427-9.387-26.496v-341.035c0.043-5.461 1.067-10.795 2.987-15.744 3.413-8.789 9.6-16.384 18.176-21.333l298.624-170.624c4.779-2.731 9.899-4.48 15.147-5.291 9.301-1.451 18.987 0.128 27.904 5.291l298.283 170.453c4.736 2.773 8.832 6.315 12.16 10.453 5.931 7.296 9.387 16.427 9.387 26.496zM938.667 682.667v-341.333c-0.043-30.293-10.581-58.155-28.331-80.128-9.813-12.203-21.845-22.528-35.456-30.507l-299.051-170.88c-26.027-15.019-55.467-19.84-83.371-15.531-15.488 2.432-30.507 7.637-44.245 15.488l-298.709 170.709c-26.368 15.232-45.227 38.272-55.424 64.597-5.675 14.592-8.619 30.165-8.747 45.952v341.632c0.043 30.293 10.581 58.155 28.331 80.128 9.813 12.203 21.845 22.528 35.456 30.507l299.051 170.88c26.027 15.019 55.467 19.84 83.371 15.531 15.488-2.432 30.507-7.637 44.245-15.488l298.709-170.709c26.368-15.232 45.227-38.272 55.424-64.597 5.675-14.592 8.619-30.165 8.747-46.251z" fill="#f4f4f4"/></g></svg>