<?xml version="1.0" encoding="utf-8"?><!DOCTYPE svg PUBLIC "-//W3C//DTD SVG 1.1//EN" "http://www.w3.org/Graphics/SVG/1.1/DTD/svg11.dtd"><svg version="1.1" xmlns="http://www.w3.org/2000/svg" xmlns:xlink="http://www.w3.org/1999/xlink" width="32" height="32" viewBox="0 0 32 32" data-tags="django"><g fill="#444" transform="scale(0.03125 0.03125)"><path d="M475.563 0h167.424v775.040c-85.888 16.299-148.949 22.827-217.429 22.827-204.416 0-310.955-92.416-310.955-269.653 0-170.709 113.067-281.6 288.128-281.6 27.179 0 47.829 2.176 72.832 8.704zM475.563 390.101c-15.859-5.539-34.142-8.738-53.171-8.738-1.182 0-2.361 0.012-3.538 0.037l0.176-0.003c-84.821 0-133.717 52.181-133.717 143.531 0 89.173 46.763 138.069 132.651 138.069 18.475 0 33.707-1.067 57.6-4.352zM909.397 258.56v388.139c0 133.717-9.771 197.888-39.125 253.312-27.179 53.291-63.061 86.997-137.003 123.947l-155.477-73.941c73.941-34.773 109.824-65.237 132.651-112 23.936-47.829 31.531-103.296 31.531-248.96v-330.539zM741.973 0.896h167.424v171.776h-167.424z" /></g></svg>