<svg xmlns="http://www.w3.org/2000/svg" xmlns:xlink="http://www.w3.org/1999/xlink" version="1.1" width="32" height="32" viewBox="0 0 32 32" data-tags="godotengine"><g fill="#444444" transform="scale(0.03125 0.03125)"><path fill="#f4f4f4" d="M407.851 29.397c-46.763 10.411-93.056 24.875-136.448 46.72 0.981 38.315 3.456 75.008 8.491 112.299-16.853 10.795-34.56 20.053-50.261 32.683-16 12.288-32.341 24.064-46.805 38.443-28.928-19.115-59.563-37.077-91.093-52.949-34.005 36.565-65.792 76.032-91.733 120.235 19.541 31.616 39.936 61.227 61.952 89.344h0.597v271.189c0.512 0 0.981 0 1.493 0.128l166.229 16.043c8.704 0.853 15.531 7.851 16.128 16.597l5.12 73.387 145.024 10.325 9.984-67.712c1.28-8.789 8.832-15.275 17.707-15.275h175.403c8.875 0 16.427 6.485 17.707 15.275l9.984 67.712 145.024-10.325 5.12-73.387c0.597-8.747 7.424-15.744 16.128-16.597l166.187-16.043c0.512 0 0.981-0.128 1.493-0.128v-21.632h0.085v-249.515h0.597c22.016-28.117 42.411-57.728 61.952-89.344-25.941-44.203-57.771-83.669-91.776-120.277-31.531 15.872-62.165 33.835-91.093 52.949-14.464-14.379-30.763-26.155-46.763-38.443-15.744-12.629-33.451-21.888-50.261-32.683 4.992-37.291 7.467-73.984 8.491-112.299-43.392-21.845-89.643-36.309-136.448-46.72-18.688 31.403-35.755 65.408-50.645 98.645-17.664-2.944-35.371-4.011-53.163-4.224h-0.683c-17.792 0.213-35.499 1.28-53.163 4.224-14.891-33.237-31.957-67.243-50.688-98.645zM276.309 426.411c55.339 0 100.224 44.843 100.224 100.181s-44.885 100.181-100.224 100.181c-55.296 0-100.181-44.843-100.181-100.181s44.843-100.181 100.181-100.181zM747.691 426.411c55.296 0 100.181 44.843 100.181 100.181s-44.843 100.181-100.181 100.181-100.224-44.843-100.224-100.181 44.843-100.181 100.224-100.181zM285.909 466.091c-36.736 0-66.517 29.781-66.517 66.517s29.781 66.475 66.517 66.475 66.517-29.781 66.517-66.475-29.739-66.517-66.517-66.517zM738.048 466.091c-36.736 0-66.475 29.781-66.475 66.517s29.739 66.475 66.475 66.475 66.517-29.781 66.517-66.475-29.739-66.517-66.517-66.517zM512 485.419c17.792 0 32.299 13.141 32.299 29.312v92.245c0 16.171-14.464 29.312-32.299 29.312s-32.256-13.141-32.256-29.312v-92.245c0-16.171 14.464-29.312 32.256-29.312zM62.293 723.243c0.085 16.085 0.256 33.664 0.256 37.163 0 157.909 200.277 233.771 449.109 234.667h0.597c248.832-0.853 449.067-76.757 449.067-234.667 0-3.584 0.213-21.12 0.299-37.163l-149.419 14.421-5.163 73.771c-0.64 8.875-7.68 16-16.597 16.64l-178.389 12.629c-8.789 0-16.384-6.443-17.707-15.275l-10.155-68.864h-144.469l-10.155 68.864c-1.365 9.259-9.643 15.915-18.987 15.232l-177.109-12.629c-8.875-0.64-16-7.723-16.597-16.597l-5.12-73.771z"/></g></svg>