<svg xmlns="http://www.w3.org/2000/svg" xmlns:xlink="http://www.w3.org/1999/xlink" version="1.1" width="32" height="32" viewBox="0 0 32 32" data-tags="graphql"><g fill="#444" transform="scale(0.03125 0.03125)"><path fill="#f4f4f4" d="M599.509 117.376l210.56 121.6c34.816-36.651 92.715-38.101 129.365-3.285 6.315 5.973 11.691 12.843 16.085 20.352 25.131 43.861 9.899 99.797-33.963 124.928-7.424 4.267-15.403 7.467-23.808 9.515v243.157c48.896 11.648 79.104 60.715 67.413 109.611-2.048 8.704-5.419 17.067-9.899 24.789-25.259 43.648-81.109 58.624-124.885 33.365-8.363-4.821-16-11.051-22.443-18.304l-209.28 120.832c15.872 47.957-10.155 99.627-58.069 115.456-9.259 3.029-18.859 4.608-28.587 4.608-50.389 0.043-91.264-40.747-91.307-91.136 0-8.747 1.237-17.493 3.755-25.984l-210.603-121.472c-34.816 36.437-92.629 37.845-129.109 2.987-36.437-34.816-37.803-92.629-2.987-129.109 12.075-12.672 27.563-21.589 44.544-25.728l0.043-243.157c-49.067-11.776-79.275-61.141-67.456-110.251 2.005-8.448 5.248-16.597 9.557-24.149 25.259-43.691 81.152-58.624 124.885-33.365 7.552 4.309 14.464 9.728 20.48 16.085l210.688-121.6c-14.336-48.341 13.269-99.072 61.483-113.365 8.405-2.517 17.237-3.755 26.027-3.755 50.389-0.043 91.264 40.704 91.307 91.051 0.043 8.917-1.28 17.835-3.797 26.325zM577.536 154.795c-0.811 0.896-1.579 1.664-2.475 2.475l275.669 477.44c1.109-0.384 2.389-0.683 3.499-0.981v-243.499c-48.853-12.075-78.592-61.525-66.475-110.421 0.256-1.024 0.512-2.091 0.811-3.072zM448.896 157.312l-2.56-2.56-211.029 121.685c13.952 48.427-13.952 98.901-62.336 112.853-1.109 0.341-2.176 0.597-3.243 0.896v243.541l3.584 0.981 275.669-477.44zM537.472 178.944c-16.64 4.779-34.261 4.779-50.859 0l-275.627 477.397c12.544 12.075 21.419 27.52 25.6 44.416h550.869c4.139-16.981 13.099-32.469 25.728-44.544zM579.541 871.296l209.621-121.088c-0.64-2.005-1.152-4.011-1.621-6.059h-551.083l-0.896 3.541 210.731 121.685c16.555-17.237 39.851-27.861 65.707-27.861 26.752 0 50.773 11.477 67.541 29.781z"/></g></svg>