<svg xmlns="http://www.w3.org/2000/svg" xmlns:xlink="http://www.w3.org/1999/xlink" version="1.1" width="32" height="32" viewBox="0 0 32 32" data-tags="kubernetes"><g fill="#444444" transform="scale(0.03125 0.03125)"><path fill="#f4f4f4" d="M435.371 612.267l0.299 0.427-42.624 102.955c-40.515-26.217-71.399-64.293-88.038-109.277l-0.495-1.528 109.995-18.645 0.171 0.213c1.034-0.202 2.224-0.318 3.44-0.318 10.368 0 18.773 8.405 18.773 18.773 0 2.675-0.559 5.219-1.567 7.521l0.047-0.121zM399.829 521.429c8.027-2.25 13.816-9.503 13.816-18.107 0-5.635-2.482-10.689-6.413-14.13l-0.022-0.019 0.085-0.469-83.669-74.837c-20.381 32.68-32.465 72.361-32.465 114.864 0 8.461 0.479 16.81 1.411 25.021l-0.093-1.005 107.264-30.933zM448.683 436.949c3.061 2.255 6.906 3.609 11.067 3.609 10.092 0 18.324-7.963 18.756-17.949l0.001-0.039 0.427-0.213 6.4-111.787c-50.435 6.054-94.773 28.406-128.456 61.554l0.029-0.028 91.605 64.981zM481.109 554.283l30.848 14.891 30.805-14.805 7.68-33.28-21.333-26.581h-34.304l-21.333 26.581zM545.109 422.229c0.439 10.020 8.668 17.977 18.756 17.977 4.18 0 8.041-1.366 11.161-3.677l-0.051 0.036 0.341 0.128 91.051-64.555c-33.536-32.862-77.543-55.152-126.559-61.411l-1.099-0.115 6.315 111.573zM1009.152 676.949l-246.315 306.389c-12.616 15.513-31.702 25.344-53.085 25.344-0.057 0-0.115-0-0.172-0l0.009 0-395.136 0.128c-0.015 0-0.034 0-0.052 0-21.421 0-40.538-9.866-53.054-25.302l-0.1-0.127-246.443-306.347c-9.212-11.446-14.785-26.159-14.785-42.174 0-5.318 0.615-10.493 1.777-15.457l-0.090 0.457 87.893-382.080c4.608-20.053 18.133-36.864 36.821-45.781l355.925-170.112c8.642-4.226 18.806-6.698 29.547-6.698s20.904 2.471 29.953 6.876l-0.406-0.179 356.053 170.027c18.688 8.917 32.213 25.771 36.821 45.781l87.979 382.080c4.608 20.053-0.213 41.088-13.141 57.173zM868.821 589.184c-1.792-0.427-4.395-1.109-6.187-1.451-7.424-1.408-13.44-1.067-20.437-1.621-14.933-1.579-27.221-2.859-38.187-6.315-4.48-1.707-7.68-7.040-9.216-9.216l-8.576-2.517c1.641-11.289 2.577-24.323 2.577-37.575 0-21.96-2.572-43.32-7.432-63.793l0.374 1.87c-8.178-35.041-21.973-65.902-40.553-93.251l0.617 0.963c2.219-2.005 6.4-5.675 7.552-6.784 0.341-3.84 0.043-7.808 4.011-12.032 8.405-7.893 18.944-14.421 31.701-22.272 6.059-3.584 11.648-5.845 17.707-10.325 1.365-1.024 3.243-2.645 4.693-3.797 10.24-8.149 12.587-22.187 5.248-31.403s-21.589-10.069-31.787-1.92c-1.451 1.152-3.413 2.645-4.736 3.755-5.717 4.949-9.259 9.813-14.080 14.933-10.496 10.667-19.2 19.541-28.715 25.984-4.139 2.389-10.197 1.579-12.928 1.408l-8.107 5.76c-45.266-47.438-106.889-78.922-175.785-85.377l-1.111-0.084-0.512-9.515c-2.773-2.645-6.101-4.907-6.955-10.667-0.939-11.435 0.64-23.765 2.432-38.613 0.981-6.955 2.603-12.715 2.901-20.267 0.043-1.707-0.043-4.224-0.043-6.059 0-13.056-9.557-23.68-21.333-23.68-11.733 0-21.291 10.624-21.291 23.68l0.043 0.597c0 1.749-0.085 3.925 0 5.461 0.256 7.552 1.877 13.312 2.859 20.267 1.792 14.848 3.328 27.179 2.389 38.656-1.278 4.397-3.685 8.129-6.889 10.988l-0.023 0.020-0.512 9.003c-70.44 5.818-132.543 37.463-177.62 85.323l-0.129 0.138c-3.683-2.53-6.184-4.325-8.66-6.152l0.98 0.69c-3.84 0.512-7.68 1.707-12.672-1.237-9.515-6.4-18.219-15.275-28.715-25.941-4.821-5.12-8.32-9.984-14.037-14.891-1.28-1.109-3.285-2.645-4.736-3.755-4.037-3.293-9.177-5.376-14.793-5.63l-0.055-0.002c-0.325-0.018-0.706-0.029-1.088-0.029-6.391 0-12.101 2.922-15.864 7.502l-0.028 0.036c-7.339 9.216-4.992 23.296 5.248 31.445l0.299 0.213 4.437 3.541c6.059 4.48 11.605 6.784 17.664 10.325 12.757 7.893 23.296 14.421 31.701 22.272 3.243 3.499 3.84 9.643 4.267 12.288l6.827 6.101c-29.025 42.985-46.332 95.96-46.332 152.977 0 13.857 1.022 27.476 2.996 40.785l-0.183-1.506-8.875 2.56c-2.347 3.072-5.675 7.851-9.173 9.259-10.965 3.456-23.296 4.693-38.187 6.272-6.997 0.597-13.013 0.256-20.48 1.664-1.579 0.299-3.84 0.853-5.675 1.28l-0.171 0.085-0.299 0.085c-12.587 3.029-20.651 14.592-18.048 25.941 2.603 11.392 14.891 18.304 27.52 15.573l0.299-0.043 0.427-0.128 5.504-1.237c7.253-1.963 12.544-4.821 19.115-7.339 14.080-5.035 25.771-9.259 37.12-10.923 4.779-0.384 9.813 2.944 12.288 4.309l9.259-1.579c21.645 65.533 65.11 118.903 121.618 152.729l1.262 0.7-3.84 9.301c1.408 3.584 2.944 8.491 1.877 12.032-4.139 10.752-11.221 22.059-19.285 34.688-3.883 5.803-7.893 10.325-11.435 17.024-0.853 1.579-1.92 4.053-2.731 5.717-5.461 11.733-1.451 25.216 9.088 30.293 10.581 5.12 23.723-0.299 29.44-12.032v-0.085c0.853-1.664 1.963-3.84 2.645-5.419 2.987-6.912 4.011-12.843 6.144-19.541 5.632-14.165 8.747-29.013 16.512-38.272 2.133-2.56 5.547-3.499 9.173-4.48l4.821-8.747c29.367 11.655 63.392 18.413 98.995 18.413 35.099 0 68.665-6.568 99.534-18.542l-1.878 0.641 4.523 8.192c3.669 1.195 7.68 1.792 10.923 6.613 5.803 9.899 9.771 21.632 14.592 35.84 2.133 6.656 3.157 12.587 6.187 19.499 0.683 1.579 1.835 3.84 2.645 5.504 5.675 11.776 18.859 17.152 29.44 12.032 10.539-5.035 14.549-18.56 9.088-30.293-0.853-1.664-1.92-4.096-2.773-5.717-3.541-6.656-7.552-11.136-11.435-16.981-8.107-12.629-14.763-23.083-18.901-33.835-1.707-5.547 0.299-8.96 1.621-12.544-0.768-0.939-2.517-6.144-3.541-8.619 57.958-34.778 101.473-88.561 122.327-152.578l0.553-1.961c2.731 0.427 7.509 1.28 9.088 1.621 3.2-2.133 6.144-4.864 11.947-4.437 11.349 1.664 23.040 5.888 37.12 10.923 6.571 2.56 11.819 5.461 19.115 7.381 1.536 0.427 3.755 0.811 5.547 1.195l0.384 0.128 0.299 0.043c12.672 2.731 24.917-4.181 27.52-15.573 2.56-11.349-5.461-22.912-18.048-25.941zM699.733 413.909l-83.2 74.496v0.213c-3.974 3.461-6.472 8.53-6.472 14.182 0 8.618 5.807 15.88 13.721 18.086l0.132 0.031 0.128 0.427 107.776 31.061c0.672-6.482 1.056-14.005 1.056-21.618 0-17.662-2.064-34.842-5.965-51.312l0.301 1.506c-5.917-25.39-15.389-47.787-28.022-68.007l0.545 0.935zM528.512 641.109c-3.197-5.943-9.372-9.914-16.475-9.914-0.268 0-0.535 0.006-0.8 0.017l0.038-0.001c-6.865 0.264-12.758 4.176-15.823 9.842l-0.049 0.099h-0.085l-54.101 97.792c21.212 7.48 45.673 11.802 71.143 11.802 25.33 0 49.662-4.274 72.313-12.141l-1.547 0.468-54.187-97.963zM609.067 585.941c-1.022-0.198-2.198-0.311-3.401-0.311-2.952 0-5.745 0.681-8.23 1.896l0.111-0.049c-6.368 3.094-10.679 9.513-10.679 16.939 0 2.7 0.57 5.267 1.596 7.586l-0.047-0.12-0.128 0.171 43.093 104.021c40.777-26.315 71.795-64.695 88.303-110.045l0.486-1.528-110.933-18.773z"/></g></svg>