<svg xmlns="http://www.w3.org/2000/svg" xmlns:xlink="http://www.w3.org/1999/xlink" width="32px" height="16px" viewBox="0 0 32 16" version="1.1">
<g id="surface1">
<path style=" stroke:none;fill-rule:nonzero;fill:#f4f4f4;fill-opacity:1;" d="M 13.183594 0.820312 C 12.464844 0.867188 12.015625 0.910156 11.605469 0.964844 C 7.382812 1.523438 3.777344 3.578125 2.542969 6.128906 C 2.230469 6.773438 2.105469 7.289062 2.101562 7.953125 C 2.097656 8.445312 2.132812 8.707031 2.257812 9.140625 C 2.617188 10.390625 3.652344 11.667969 5.121094 12.679688 C 8.550781 15.039062 13.742188 15.816406 18.414062 14.671875 C 20.0625 14.269531 21.613281 13.621094 22.902344 12.796875 C 23.316406 12.535156 23.96875 12.0625 23.96875 12.027344 C 23.96875 12.015625 23.796875 12.089844 23.585938 12.195312 C 22.484375 12.742188 20.945312 13.199219 19.390625 13.441406 C 17.425781 13.742188 15.511719 13.71875 13.390625 13.359375 C 8.683594 12.570312 6.335938 10.796875 6.328125 8.03125 C 6.328125 7.523438 6.359375 7.285156 6.484375 6.859375 C 7.140625 4.582031 9.921875 3 14.0625 2.53125 C 16.507812 2.257812 19.054688 2.421875 21.382812 3.011719 C 22.195312 3.214844 23.160156 3.546875 23.628906 3.78125 C 23.730469 3.832031 23.820312 3.871094 23.828125 3.867188 C 23.847656 3.84375 23.335938 3.476562 22.910156 3.207031 C 20.894531 1.921875 18.429688 1.125 15.679688 0.875 C 15.175781 0.832031 13.554688 0.792969 13.183594 0.820312 Z M 13.183594 0.820312 "/>
</g>
</svg>