<svg xmlns="http://www.w3.org/2000/svg" xmlns:xlink="http://www.w3.org/1999/xlink" width="32px" height="px" viewBox="0 0 32 32" version="1.1">
<g id="surface1">
<path style=" stroke:none;fill-rule:nonzero;fill:#f4f4f4;fill-opacity:1;" d="M 7.777344 18.921875 C 6.667969 18.976562 5.671875 18.238281 5.398438 17.160156 C 5.707031 18.621094 7.359375 20.050781 12.582031 20.6875 C 15.753906 21.210938 19.007812 20.640625 21.816406 19.078125 C 21.816406 19.078125 22.546875 18.753906 22.109375 19.253906 C 22.109375 19.253906 19 22.125 12.90625 22.152344 C 6.816406 22.179688 1.96875 19.105469 2 16 C 1.972656 12.894531 6.804688 9.816406 12.898438 9.84375 C 18.992188 9.875 22.101562 12.746094 22.101562 12.746094 C 22.539062 13.246094 21.808594 12.921875 21.808594 12.921875 C 20.722656 12.222656 17.519531 10.832031 12.574219 11.308594 C 7.710938 11.777344 6.121094 13.429688 5.59375 14.542969 C 5.40625 14.933594 5.300781 15.355469 5.277344 15.785156 C 5.335938 14.457031 6.449219 13.425781 7.777344 13.46875 C 8.484375 13.460938 9.160156 13.753906 9.640625 14.273438 C 10.125 14.792969 10.363281 15.488281 10.300781 16.195312 C 10.363281 16.898438 10.125 17.597656 9.644531 18.117188 C 9.164062 18.636719 8.484375 18.925781 7.777344 18.921875 Z M 27.425781 17.847656 L 30 17.847656 L 30 18.785156 L 26.34375 18.785156 L 26.34375 13.609375 L 27.425781 13.609375 Z M 23.453125 16 L 25.617188 16 L 25.617188 18.789062 L 24.898438 18.789062 L 24.792969 18.140625 C 24.417969 18.65625 23.8125 18.953125 23.179688 18.929688 C 22.488281 18.921875 21.835938 18.625 21.378906 18.105469 C 20.925781 17.589844 20.714844 16.902344 20.800781 16.21875 C 20.726562 15.507812 20.960938 14.800781 21.445312 14.273438 C 21.929688 13.75 22.617188 13.460938 23.328125 13.476562 C 24.433594 13.347656 25.4375 14.117188 25.601562 15.21875 L 24.515625 15.21875 C 24.382812 14.703125 23.914062 14.351562 23.382812 14.367188 C 22.613281 14.367188 21.898438 14.898438 21.898438 16.226562 C 21.898438 17.640625 22.667969 18.007812 23.402344 18.007812 C 24.050781 17.996094 24.585938 17.507812 24.65625 16.867188 L 23.457031 16.867188 L 23.457031 16 Z M 7.78125 14.101562 C 7.253906 14.113281 6.753906 14.347656 6.410156 14.75 C 6.066406 15.152344 5.910156 15.679688 5.980469 16.203125 C 5.910156 16.730469 6.066406 17.257812 6.410156 17.660156 C 6.753906 18.0625 7.253906 18.296875 7.78125 18.308594 C 8.308594 18.296875 8.808594 18.0625 9.152344 17.660156 C 9.496094 17.257812 9.652344 16.730469 9.582031 16.203125 C 9.652344 15.679688 9.496094 15.152344 9.152344 14.75 C 8.808594 14.347656 8.308594 14.113281 7.78125 14.101562 Z M 10.691406 15.484375 L 11.21875 15.484375 L 11.21875 15.949219 L 11.230469 15.949219 C 11.433594 15.597656 11.808594 15.382812 12.21875 15.386719 C 12.640625 15.402344 13.042969 15.589844 13.328125 15.90625 C 13.609375 16.222656 13.753906 16.640625 13.722656 17.066406 C 13.765625 17.519531 13.617188 17.96875 13.320312 18.3125 C 13.019531 18.660156 12.59375 18.867188 12.140625 18.890625 C 11.789062 18.90625 11.457031 18.738281 11.261719 18.445312 L 11.246094 18.445312 L 11.246094 20.101562 L 10.691406 20.101562 L 10.691406 15.480469 Z M 12.101562 18.398438 C 12.707031 18.398438 13.117188 17.871094 13.117188 17.144531 C 13.117188 16.722656 12.949219 15.882812 12.085938 15.882812 C 11.285156 15.882812 11.195312 16.75 11.195312 17.289062 C 11.195312 18.167969 11.746094 18.402344 12.097656 18.402344 Z M 17.101562 17.746094 C 16.976562 18.457031 16.328125 18.949219 15.613281 18.882812 C 15.1875 18.882812 14.78125 18.703125 14.5 18.386719 C 14.214844 18.066406 14.082031 17.644531 14.128906 17.222656 C 14.128906 16.199219 14.625 15.382812 15.71875 15.382812 C 16.675781 15.382812 17.140625 16.140625 17.140625 17.3125 L 14.722656 17.3125 C 14.722656 18.003906 15.042969 18.402344 15.683594 18.402344 C 16.085938 18.417969 16.445312 18.144531 16.535156 17.75 L 17.101562 17.75 Z M 16.511719 16.867188 C 16.476562 16.355469 16.261719 15.882812 15.585938 15.882812 C 15.066406 15.910156 14.660156 16.347656 14.667969 16.867188 Z M 20.222656 18.785156 L 19.664062 18.785156 L 19.664062 16.75 C 19.664062 16.175781 19.5 15.882812 18.957031 15.882812 C 18.640625 15.882812 18.082031 16.085938 18.082031 16.984375 L 18.082031 18.785156 L 17.527344 18.785156 L 17.527344 15.480469 L 18.050781 15.480469 L 18.050781 15.945312 L 18.0625 15.945312 C 18.28125 15.601562 18.65625 15.390625 19.0625 15.382812 C 19.378906 15.347656 19.695312 15.457031 19.917969 15.683594 C 20.144531 15.90625 20.257812 16.21875 20.222656 16.535156 L 20.222656 18.789062 "/>
</g>
</svg>