<?xml version="1.0" encoding="UTF-8"?>
<svg xmlns="http://www.w3.org/2000/svg" xmlns:xlink="http://www.w3.org/1999/xlink" width="32px" height="32px" viewBox="0 0 32 32" version="1.1">
<g id="surface1">
<path style=" stroke:none;fill-rule:nonzero;fill:rgb(100%,100%,100%);fill-opacity:1;" d="M 22.835938 0 C 21.523438 0.0117188 20.261719 0.207031 19.070312 0.5625 L 19.164062 0.539062 L 19.078125 0.5625 C 18.402344 0.4375 17.617188 0.359375 16.8125 0.34375 L 16.800781 0.34375 C 15.230469 0.316406 13.878906 0.699219 12.792969 1.332031 C 11.71875 0.960938 9.496094 0.320312 7.152344 0.449219 C 5.519531 0.539062 3.738281 1.035156 2.417969 2.425781 C 1.101562 3.820312 0.40625 5.976562 0.554688 8.910156 C 0.59375 9.71875 0.824219 11.039062 1.207031 12.746094 C 1.589844 14.457031 2.125 16.457031 2.796875 18.285156 C 3.46875 20.109375 4.203125 21.75 5.351562 22.867188 C 5.925781 23.425781 6.714844 23.894531 7.644531 23.855469 C 8.296875 23.828125 8.886719 23.542969 9.398438 23.117188 C 9.644531 23.445312 9.910156 23.589844 10.152344 23.71875 C 10.457031 23.886719 10.753906 24 11.058594 24.074219 C 11.609375 24.210938 12.550781 24.394531 13.65625 24.207031 C 14.03125 24.144531 14.429688 24.023438 14.824219 23.847656 C 14.835938 24.289062 14.855469 24.71875 14.871094 25.15625 C 14.925781 26.535156 14.960938 27.8125 15.375 28.929688 C 15.441406 29.113281 15.625 30.054688 16.34375 30.886719 C 17.066406 31.71875 18.476562 32.234375 20.082031 31.890625 C 21.214844 31.648438 22.65625 31.210938 23.613281 29.847656 C 24.5625 28.503906 24.988281 26.570312 25.070312 23.4375 C 25.09375 23.269531 25.117188 23.125 25.144531 22.988281 L 25.371094 23.007812 L 25.398438 23.007812 C 26.605469 23.0625 27.917969 22.890625 29.015625 22.382812 C 29.984375 21.933594 30.71875 21.480469 31.253906 20.671875 C 31.386719 20.472656 31.535156 20.230469 31.574219 19.816406 C 31.613281 19.398438 31.375 18.746094 30.980469 18.449219 C 30.1875 17.84375 29.6875 18.074219 29.152344 18.183594 C 28.675781 18.296875 28.125 18.367188 27.5625 18.378906 L 27.550781 18.378906 C 29.09375 15.785156 30.199219 13.027344 30.828125 10.585938 C 31.203125 9.148438 31.410156 7.820312 31.429688 6.65625 C 31.445312 5.496094 31.351562 4.46875 30.65625 3.578125 C 28.480469 0.800781 25.421875 0.03125 23.058594 0.00390625 C 22.984375 0.00390625 22.910156 0.00390625 22.835938 0 Z M 22.773438 0.851562 C 25.011719 0.832031 27.871094 1.460938 29.921875 4.082031 C 30.382812 4.671875 30.519531 5.535156 30.503906 6.59375 C 30.488281 7.65625 30.292969 8.925781 29.933594 10.316406 C 29.238281 13.007812 27.921875 16.148438 26.070312 18.964844 C 26.132812 19.007812 26.199219 19.046875 26.273438 19.078125 L 26.28125 19.078125 C 26.667969 19.238281 27.550781 19.378906 29.308594 19.015625 C 29.75 18.921875 30.074219 18.859375 30.410156 19.117188 C 30.5625 19.242188 30.65625 19.433594 30.65625 19.644531 C 30.65625 19.660156 30.65625 19.671875 30.65625 19.683594 C 30.636719 19.851562 30.574219 20.003906 30.480469 20.132812 L 30.480469 20.128906 C 30.140625 20.640625 29.46875 21.125 28.609375 21.523438 C 27.847656 21.878906 26.757812 22.0625 25.789062 22.074219 C 25.304688 22.078125 24.855469 22.042969 24.476562 21.925781 L 24.453125 21.914062 C 24.304688 23.328125 23.96875 26.117188 23.746094 27.390625 C 23.570312 28.417969 23.265625 29.234375 22.675781 29.84375 C 22.089844 30.457031 21.257812 30.824219 20.140625 31.0625 C 18.757812 31.363281 17.746094 31.042969 17.097656 30.492188 C 16.449219 29.945312 16.152344 29.222656 15.972656 28.777344 C 15.847656 28.472656 15.785156 28.074219 15.722656 27.542969 C 15.664062 27.011719 15.617188 26.363281 15.585938 25.628906 C 15.558594 24.886719 15.542969 24.011719 15.542969 23.132812 C 15.542969 22.828125 15.542969 22.523438 15.546875 22.21875 L 15.546875 22.265625 C 14.988281 22.777344 14.285156 23.140625 13.5 23.277344 L 13.476562 23.28125 C 12.558594 23.4375 11.738281 23.28125 11.25 23.160156 C 10.984375 23.09375 10.753906 23 10.539062 22.882812 L 10.554688 22.890625 C 10.328125 22.769531 10.113281 22.632812 9.96875 22.363281 C 9.910156 22.257812 9.878906 22.136719 9.878906 22.003906 C 9.878906 21.953125 9.882812 21.898438 9.894531 21.851562 L 9.894531 21.855469 C 9.941406 21.675781 10.042969 21.523438 10.183594 21.414062 C 10.449219 21.199219 10.796875 21.078125 11.324219 20.96875 C 12.28125 20.773438 12.617188 20.636719 12.820312 20.476562 C 12.996094 20.335938 13.191406 20.058594 13.539062 19.648438 C 13.535156 19.632812 13.535156 19.613281 13.535156 19.597656 L 13.535156 19.59375 C 12.878906 19.574219 12.273438 19.398438 11.738281 19.105469 L 11.761719 19.113281 C 11.558594 19.324219 10.539062 20.40625 9.292969 21.902344 C 8.769531 22.53125 8.191406 22.890625 7.578125 22.917969 C 6.96875 22.941406 6.417969 22.632812 5.949219 22.179688 C 5.011719 21.269531 4.261719 19.703125 3.609375 17.933594 C 2.960938 16.160156 2.429688 14.1875 2.054688 12.507812 C 1.675781 10.828125 1.453125 9.476562 1.421875 8.820312 C 1.28125 6.046875 1.933594 4.175781 3.046875 2.996094 C 4.160156 1.816406 5.6875 1.367188 7.175781 1.28125 C 9.851562 1.128906 12.390625 2.0625 12.902344 2.261719 C 13.890625 1.589844 15.167969 1.171875 16.757812 1.199219 C 17.558594 1.207031 18.332031 1.3125 19.066406 1.503906 L 19 1.488281 L 19.027344 1.476562 C 19.285156 1.378906 19.613281 1.28125 19.949219 1.203125 L 20.011719 1.191406 C 20.835938 0.988281 21.789062 0.867188 22.765625 0.851562 Z M 22.976562 1.746094 L 22.78125 1.746094 C 21.972656 1.757812 21.1875 1.851562 20.433594 2.015625 L 20.511719 2.003906 C 22.171875 2.738281 23.425781 3.871094 24.3125 5.003906 C 24.894531 5.742188 25.402344 6.585938 25.792969 7.488281 L 25.820312 7.5625 C 25.964844 7.914062 26.066406 8.210938 26.121094 8.441406 C 26.148438 8.558594 26.167969 8.65625 26.175781 8.757812 C 26.175781 8.808594 26.179688 8.859375 26.160156 8.949219 C 26.160156 8.953125 26.152344 8.960938 26.152344 8.964844 C 26.191406 10.132812 25.902344 10.925781 25.867188 12.042969 C 25.839844 12.847656 26.046875 13.796875 26.097656 14.835938 C 26.144531 15.808594 26.027344 16.878906 25.394531 17.925781 C 25.449219 17.992188 25.496094 18.054688 25.546875 18.117188 C 27.21875 15.484375 28.425781 12.570312 29.066406 10.089844 C 29.410156 8.75 29.59375 7.539062 29.609375 6.578125 C 29.625 5.617188 29.445312 4.921875 29.21875 4.632812 C 27.429688 2.34375 25.007812 1.761719 22.976562 1.746094 Z M 16.589844 2.089844 C 15.015625 2.09375 13.882812 2.566406 13.027344 3.28125 C 12.144531 4.019531 11.550781 5.027344 11.160156 6.0625 C 10.699219 7.289062 10.539062 8.476562 10.476562 9.28125 L 10.492188 9.269531 C 10.96875 9.003906 11.59375 8.734375 12.265625 8.582031 C 12.933594 8.429688 13.65625 8.378906 14.308594 8.632812 C 14.960938 8.886719 15.5 9.484375 15.699219 10.386719 C 16.636719 14.730469 15.40625 16.34375 14.953125 17.5625 C 14.808594 17.914062 14.65625 18.363281 14.53125 18.824219 L 14.511719 18.914062 C 14.566406 18.898438 14.625 18.882812 14.683594 18.878906 C 15.003906 18.851562 15.253906 18.957031 15.402344 19.023438 C 15.859375 19.210938 16.171875 19.609375 16.339844 20.0625 C 16.386719 20.179688 16.417969 20.308594 16.4375 20.441406 C 16.453125 20.488281 16.464844 20.539062 16.464844 20.59375 C 16.464844 20.601562 16.460938 20.605469 16.460938 20.613281 L 16.460938 20.609375 C 16.441406 21.277344 16.429688 22.0625 16.429688 22.847656 C 16.429688 23.8125 16.445312 24.773438 16.484375 25.734375 L 16.480469 25.59375 C 16.511719 26.3125 16.554688 26.945312 16.613281 27.441406 C 16.671875 27.941406 16.753906 28.320312 16.804688 28.445312 C 16.976562 28.875 17.222656 29.433594 17.675781 29.8125 C 18.125 30.191406 18.773438 30.445312 19.953125 30.191406 C 20.976562 29.96875 21.609375 29.664062 22.03125 29.226562 C 22.453125 28.789062 22.707031 28.175781 22.867188 27.242188 C 23.109375 25.84375 23.59375 21.78125 23.652344 21.019531 C 23.625 20.441406 23.710938 20 23.894531 19.664062 C 24.082031 19.316406 24.378906 19.105469 24.628906 18.988281 C 24.757812 18.933594 24.875 18.894531 24.972656 18.867188 C 24.855469 18.695312 24.75 18.554688 24.636719 18.417969 L 24.648438 18.433594 C 24.300781 18.011719 24 17.527344 23.777344 17.003906 L 23.761719 16.964844 C 23.625 16.6875 23.511719 16.476562 23.390625 16.269531 L 23.417969 16.324219 C 23.242188 16.003906 23.015625 15.601562 22.78125 15.152344 C 22.3125 14.253906 21.800781 13.164062 21.539062 12.101562 C 21.273438 11.039062 21.234375 9.941406 21.910156 9.164062 C 22.511719 8.476562 23.566406 8.191406 25.148438 8.351562 C 25.101562 8.210938 25.070312 8.097656 24.992188 7.910156 C 24.605469 7.011719 24.140625 6.238281 23.589844 5.535156 L 23.605469 5.558594 C 22.265625 3.84375 20.097656 2.144531 16.742188 2.089844 Z M 7.734375 2.15625 C 7.566406 2.15625 7.394531 2.164062 7.226562 2.171875 C 5.882812 2.25 4.609375 2.640625 3.699219 3.605469 C 2.785156 4.570312 2.183594 6.152344 2.316406 8.773438 C 2.339844 9.269531 2.558594 10.660156 2.929688 12.308594 C 3.296875 13.960938 3.820312 15.902344 4.449219 17.617188 C 5.082031 19.335938 5.84375 20.828125 6.570312 21.535156 C 6.9375 21.886719 7.253906 22.03125 7.542969 22.019531 C 7.832031 22.003906 8.179688 21.839844 8.605469 21.328125 C 9.441406 20.320312 10.230469 19.433594 11.042969 18.570312 L 11.015625 18.597656 C 10.03125 17.738281 9.410156 16.480469 9.410156 15.078125 C 9.410156 14.835938 9.429688 14.601562 9.464844 14.371094 L 9.460938 14.398438 C 9.597656 13.410156 9.617188 12.492188 9.601562 11.761719 C 9.585938 11.054688 9.535156 10.582031 9.535156 10.285156 C 9.535156 10.28125 9.535156 10.277344 9.535156 10.273438 C 9.535156 10.269531 9.535156 10.265625 9.535156 10.261719 L 9.535156 10.246094 C 9.535156 10.242188 9.535156 10.242188 9.535156 10.238281 C 9.535156 8.625 9.824219 7.082031 10.351562 5.652344 L 10.324219 5.742188 C 10.695312 4.753906 11.253906 3.742188 12.085938 2.929688 C 11.265625 2.660156 9.8125 2.25 8.238281 2.171875 C 8.089844 2.164062 7.914062 2.15625 7.734375 2.15625 Z M 24.265625 9.199219 C 23.359375 9.210938 22.851562 9.445312 22.585938 9.75 C 22.207031 10.183594 22.171875 10.945312 22.40625 11.878906 C 22.640625 12.816406 23.121094 13.867188 23.574219 14.734375 C 23.800781 15.171875 24.023438 15.5625 24.199219 15.882812 C 24.378906 16.203125 24.507812 16.429688 24.589844 16.621094 C 24.664062 16.800781 24.742188 16.957031 24.828125 17.105469 C 25.175781 16.367188 25.238281 15.636719 25.203125 14.882812 C 25.15625 13.945312 24.941406 12.984375 24.972656 12.015625 C 25.007812 10.878906 25.230469 10.140625 25.253906 9.265625 C 24.957031 9.222656 24.613281 9.199219 24.265625 9.199219 Z M 13.285156 9.351562 C 12.992188 9.355469 12.710938 9.390625 12.441406 9.457031 L 12.464844 9.453125 C 11.882812 9.597656 11.371094 9.800781 10.898438 10.066406 L 10.929688 10.050781 C 10.75 10.148438 10.597656 10.246094 10.457031 10.359375 L 10.460938 10.355469 L 10.433594 10.382812 C 10.441406 10.574219 10.480469 11.046875 10.496094 11.742188 C 10.511719 12.503906 10.492188 13.472656 10.347656 14.519531 C 10.027344 16.800781 11.683594 18.6875 13.625 18.691406 C 13.738281 18.222656 13.925781 17.75 14.113281 17.25 C 14.65625 15.789062 15.71875 14.726562 14.824219 10.574219 C 14.675781 9.894531 14.386719 9.621094 13.984375 9.464844 C 13.789062 9.394531 13.566406 9.351562 13.328125 9.351562 C 13.316406 9.351562 13.300781 9.351562 13.285156 9.351562 Z M 23.84375 9.625 L 23.910156 9.625 C 23.996094 9.628906 24.078125 9.636719 24.148438 9.65625 C 24.222656 9.671875 24.28125 9.695312 24.332031 9.726562 C 24.386719 9.761719 24.421875 9.8125 24.433594 9.875 L 24.433594 9.886719 C 24.433594 9.890625 24.433594 9.894531 24.433594 9.898438 C 24.433594 9.960938 24.414062 10.019531 24.382812 10.066406 L 24.386719 10.066406 C 24.34375 10.140625 24.296875 10.207031 24.238281 10.265625 C 24.105469 10.410156 23.929688 10.511719 23.730469 10.546875 L 23.722656 10.546875 C 23.695312 10.550781 23.664062 10.554688 23.628906 10.554688 C 23.460938 10.554688 23.304688 10.5 23.175781 10.410156 C 23.109375 10.367188 23.054688 10.3125 23.003906 10.253906 C 22.960938 10.207031 22.933594 10.148438 22.921875 10.085938 C 22.917969 10.078125 22.917969 10.070312 22.917969 10.0625 C 22.917969 10.007812 22.941406 9.953125 22.976562 9.914062 C 23.019531 9.863281 23.070312 9.824219 23.128906 9.792969 L 23.132812 9.792969 C 23.261719 9.722656 23.433594 9.667969 23.628906 9.640625 C 23.703125 9.628906 23.773438 9.621094 23.84375 9.625 Z M 13.414062 9.847656 C 13.488281 9.847656 13.5625 9.855469 13.636719 9.867188 C 13.839844 9.894531 14.023438 9.949219 14.160156 10.03125 C 14.230469 10.066406 14.289062 10.113281 14.339844 10.167969 L 14.339844 10.171875 C 14.382812 10.222656 14.414062 10.292969 14.414062 10.367188 C 14.414062 10.378906 14.410156 10.386719 14.410156 10.398438 C 14.398438 10.476562 14.363281 10.546875 14.308594 10.601562 L 14.3125 10.601562 C 14.257812 10.667969 14.191406 10.726562 14.125 10.773438 L 14.121094 10.777344 C 13.984375 10.875 13.8125 10.933594 13.625 10.933594 C 13.589844 10.933594 13.554688 10.929688 13.519531 10.925781 L 13.523438 10.925781 C 13.300781 10.890625 13.105469 10.78125 12.964844 10.625 L 12.960938 10.621094 C 12.902344 10.558594 12.847656 10.488281 12.808594 10.410156 L 12.804688 10.402344 C 12.769531 10.347656 12.75 10.28125 12.75 10.207031 C 12.75 10.191406 12.75 10.179688 12.75 10.167969 C 12.769531 10.023438 12.890625 9.949219 13.003906 9.90625 C 13.113281 9.871094 13.242188 9.847656 13.371094 9.847656 C 13.386719 9.847656 13.402344 9.847656 13.417969 9.847656 Z M 25.496094 19.640625 L 25.492188 19.640625 C 25.296875 19.710938 25.132812 19.742188 25 19.800781 C 24.859375 19.855469 24.75 19.957031 24.679688 20.082031 L 24.679688 20.085938 C 24.597656 20.238281 24.523438 20.511719 24.546875 20.976562 C 24.601562 21.015625 24.667969 21.046875 24.738281 21.066406 L 24.742188 21.066406 C 24.96875 21.136719 25.351562 21.183594 25.78125 21.175781 C 26.628906 21.167969 27.675781 20.96875 28.234375 20.710938 C 28.714844 20.484375 29.128906 20.210938 29.496094 19.882812 L 29.492188 19.890625 L 29.488281 19.890625 C 27.632812 20.273438 26.582031 20.171875 25.9375 19.90625 C 25.769531 19.835938 25.625 19.746094 25.492188 19.636719 Z M 14.789062 19.765625 L 14.761719 19.765625 C 14.6875 19.773438 14.585938 19.796875 14.386719 20.015625 C 13.925781 20.535156 13.761719 20.863281 13.378906 21.167969 C 12.996094 21.472656 12.5 21.632812 11.503906 21.839844 C 11.191406 21.902344 11.011719 21.972656 10.890625 22.03125 C 10.929688 22.0625 10.925781 22.070312 10.984375 22.101562 C 11.128906 22.179688 11.316406 22.253906 11.464844 22.289062 C 11.894531 22.398438 12.59375 22.519531 13.328125 22.398438 C 14.058594 22.273438 14.820312 21.921875 15.46875 21.011719 C 15.582031 20.851562 15.59375 20.621094 15.5 20.371094 C 15.40625 20.121094 15.203125 19.90625 15.058594 19.847656 C 14.980469 19.808594 14.890625 19.777344 14.792969 19.765625 Z M 14.789062 19.765625 "/>
</g>
</svg>
