<svg xmlns="http://www.w3.org/2000/svg" xmlns:xlink="http://www.w3.org/1999/xlink" width="32px" height="px" viewBox="0 0 32 32" version="1.1">
<g id="surface1">
<path style=" stroke:none;fill-rule:nonzero;fill:#f4f4f4;fill-opacity:1;" d="M 20.648438 21.347656 C 20.714844 21.351562 20.78125 21.359375 20.851562 21.359375 C 21.828125 21.363281 22.804688 21.355469 23.78125 21.367188 C 23.996094 21.367188 24.0625 21.296875 24.050781 21.089844 C 24.035156 20.824219 24.046875 20.554688 24.046875 20.226562 C 25.15625 21.039062 26.226562 21.828125 27.328125 22.640625 C 26.234375 23.441406 25.164062 24.230469 24.046875 25.054688 C 24.046875 24.742188 24.046875 24.488281 24.046875 24.230469 C 24.046875 23.898438 24.046875 23.898438 23.722656 23.898438 C 17.476562 23.898438 11.230469 23.898438 4.980469 23.898438 C 4.679688 23.898438 4.679688 23.898438 4.679688 23.59375 C 4.679688 22.933594 4.6875 22.273438 4.675781 21.617188 C 4.671875 21.402344 4.738281 21.355469 4.945312 21.355469 C 8.304688 21.363281 11.660156 21.367188 15.019531 21.359375 C 16.742188 21.351562 18.101562 20.640625 19 19.15625 C 20.621094 16.476562 18.933594 12.964844 15.824219 12.515625 C 13.425781 12.164062 11.191406 13.777344 10.785156 16.21875 C 10.742188 16.472656 10.738281 16.730469 10.714844 17.039062 C 11.109375 16.984375 11.464844 16.9375 11.867188 16.882812 C 11.234375 18.101562 10.628906 19.28125 10.007812 20.472656 C 9.0625 19.496094 8.128906 18.535156 7.21875 17.597656 C 7.445312 17.558594 7.75 17.515625 8.050781 17.453125 C 8.109375 17.441406 8.191406 17.347656 8.191406 17.296875 C 8.171875 16.65625 8.21875 16.023438 8.34375 15.398438 C 8.347656 15.378906 8.335938 15.355469 8.332031 15.320312 C 7.722656 15.214844 7.15625 14.996094 6.640625 14.640625 C 5.386719 13.773438 4.730469 12.15625 5.039062 10.6875 C 5.375 9.082031 6.585938 7.882812 8.148438 7.585938 C 9.164062 7.394531 10.101562 7.578125 10.976562 8.113281 C 11.128906 8.210938 11.222656 8.222656 11.324219 8.058594 C 11.382812 7.960938 11.472656 7.882812 11.574219 7.765625 C 11.703125 8.277344 11.820312 8.757812 11.9375 9.234375 C 11.980469 9.394531 12.011719 9.558594 12.058594 9.71875 C 12.109375 9.890625 12.054688 9.96875 11.875 9.957031 C 11.347656 9.921875 10.820312 9.886719 10.296875 9.851562 C 10.164062 9.84375 10.035156 9.828125 9.867188 9.8125 C 10 9.648438 10.117188 9.503906 10.246094 9.34375 C 9.960938 9.125 9.648438 9.019531 9.324219 8.964844 C 7.746094 8.707031 6.359375 9.917969 6.390625 11.511719 C 6.414062 12.738281 7.445312 13.832031 8.664062 13.933594 C 8.824219 13.949219 8.878906 13.867188 8.9375 13.75 C 9.804688 12.09375 11.105469 10.921875 12.875 10.308594 C 16.96875 8.898438 21.242188 11.429688 22.03125 15.570312 C 22.421875 17.609375 21.980469 19.46875 20.742188 21.140625 C 20.707031 21.183594 20.675781 21.234375 20.648438 21.28125 C 20.640625 21.292969 20.648438 21.308594 20.652344 21.347656 Z M 20.648438 21.347656 "/>
</g>
</svg>