<svg xmlns="http://www.w3.org/2000/svg" xmlns:xlink="http://www.w3.org/1999/xlink" width="32px" height="px" viewBox="0 0 32 32" version="1.1">
<g id="surface1">
<path style=" stroke:none;fill-rule:nonzero;fill:#f4f4f4;fill-opacity:1;" d="M 28.902344 0.695312 C 27.527344 -0.53125 25.863281 -0.0390625 24.21875 1.421875 C 23.964844 1.648438 23.722656 1.886719 23.492188 2.132812 C 20.679688 5.117188 18.070312 10.640625 17.257812 14.859375 C 17.574219 15.5 17.820312 16.316406 17.984375 16.941406 C 18.066406 17.25 18.136719 17.5625 18.203125 17.878906 C 18.203125 17.878906 18.175781 17.78125 18.074219 17.484375 L 18.007812 17.289062 C 17.996094 17.253906 17.980469 17.214844 17.964844 17.179688 C 17.78125 16.753906 17.273438 15.855469 17.050781 15.460938 C 16.859375 16.027344 16.6875 16.554688 16.546875 17.03125 C 17.191406 18.210938 17.585938 20.230469 17.585938 20.230469 C 17.585938 20.230469 17.550781 20.097656 17.390625 19.640625 C 17.246094 19.238281 16.53125 17.984375 16.359375 17.6875 C 16.070312 18.761719 15.953125 19.484375 16.058594 19.660156 C 16.261719 20 16.453125 20.589844 16.621094 21.242188 C 17.003906 22.707031 17.269531 24.496094 17.269531 24.496094 L 17.289062 24.792969 C 17.242188 26.015625 17.265625 27.238281 17.367188 28.457031 C 17.492188 29.984375 17.730469 31.296875 18.03125 32 L 18.238281 31.886719 C 17.792969 30.503906 17.613281 28.6875 17.691406 26.597656 C 17.8125 23.402344 18.546875 19.546875 19.90625 15.527344 C 22.203125 9.460938 25.390625 4.59375 28.308594 2.265625 C 25.648438 4.667969 22.050781 12.441406 20.972656 15.316406 C 19.769531 18.539062 18.914062 21.5625 18.398438 24.460938 C 19.285156 21.742188 22.160156 20.578125 22.160156 20.578125 C 22.160156 20.578125 23.570312 18.839844 25.214844 16.355469 C 24.230469 16.582031 22.609375 16.964844 22.066406 17.195312 C 21.265625 17.53125 21.050781 17.644531 21.050781 17.644531 C 21.050781 17.644531 23.644531 16.066406 25.867188 15.351562 C 28.925781 10.535156 32.261719 3.6875 28.902344 0.695312 M 4.140625 1.417969 C 2.789062 1.421875 1.699219 2.515625 1.691406 3.867188 L 1.691406 26.011719 C 1.699219 27.359375 2.789062 28.453125 4.140625 28.457031 L 16.699219 28.457031 C 16.601562 27.253906 16.578125 26.050781 16.628906 24.847656 C 16.621094 24.765625 16.613281 24.660156 16.605469 24.578125 C 16.445312 23.515625 16.234375 22.457031 15.976562 21.410156 C 15.816406 20.78125 15.609375 20.210938 15.484375 20 C 15.328125 19.738281 15.351562 19.585938 15.355469 19.425781 C 15.355469 19.265625 15.375 19.097656 15.402344 18.910156 C 15.484375 18.441406 15.585938 17.972656 15.714844 17.515625 L 16.003906 17.480469 C 15.984375 17.433594 15.988281 17.390625 15.964844 17.347656 L 15.910156 16.839844 C 16.070312 16.308594 16.238281 15.777344 16.417969 15.25 L 16.683594 15.222656 C 16.675781 15.203125 16.671875 15.171875 16.660156 15.152344 L 16.605469 14.730469 C 17.445312 10.359375 20.054688 4.808594 23.003906 1.675781 C 23.09375 1.585938 23.179688 1.507812 23.269531 1.417969 Z M 4.140625 1.417969 "/>
</g>
</svg>