<svg xmlns="http://www.w3.org/2000/svg" xmlns:xlink="http://www.w3.org/1999/xlink" version="1.1" width="32" height="32" viewBox="0 0 32 32" data-tags="unrealengine"><g fill="#444444" transform="scale(0.03125 0.03125)"><path d="M511.957 0c-280.405 0-507.691 229.248-507.691 512 0 282.795 227.285 512 507.691 512 280.363 0 507.691-229.205 507.691-512 0-282.752-227.328-512-507.691-512zM511.957 22.528c129.621 0 251.52 50.944 343.168 143.36 87.857 88.288 142.168 210.028 142.168 344.452 0 0.583-0.001 1.167-0.003 1.75l0-0.090c0 130.731-50.475 253.653-142.165 346.112-87.155 88.518-208.289 143.361-342.232 143.361-0.314 0-0.628-0-0.942-0.001l0.049 0c-0.295 0.001-0.646 0.001-0.996 0.001-133.938 0-255.066-54.843-342.154-143.299l-0.061-0.062c-87.882-88.299-142.211-210.061-142.211-344.513 0-0.562 0.001-1.124 0.003-1.686l-0 0.087c0-130.731 50.517-253.653 142.165-346.112 87.142-88.517 208.264-143.361 342.197-143.361 0.356 0 0.713 0 1.069 0.001l-0.055-0zM486.571 202.709c-82.688 22.187-159.232 64.683-261.248 181.675-102.059 116.992-82.688 213.589-82.688 213.589s28.16-66.475 95.872-136.491c32.085-33.152 56.064-44.245 72.448-44.288 0.434-0.026 0.941-0.041 1.452-0.041 14.091 0 25.515 11.423 25.515 25.515 0 0.075-0 0.149-0.001 0.223l0-0.011v237.525c0 23.467-15.104 28.544-29.013 28.288-11.904-0.213-22.912-4.352-22.912-4.352 69.547 101.035 235.776 115.2 235.776 115.2l73.003-77.995 1.707 1.493 66.901 57.003c122.283-72.661 181.248-207.36 181.248-207.36-54.571 57.728-89.344 71.211-109.995 71.125-18.304-0.128-25.472-10.88-25.472-10.88-0.981-4.992-2.688-77.227-3.328-149.547-0.597-74.923-0.043-149.888 3.712-150.101 21.077-39.637 88.448-119.552 88.448-119.552-125.781 24.789-194.389 107.221-194.389 107.221-20.267-15.957-61.611-13.269-61.611-13.269 19.371 10.667 38.699 41.643 38.699 67.328v252.587c0 0-42.24 37.248-74.752 37.248-19.243 0-31.104-10.539-37.589-19.157-2.457-3.182-4.602-6.806-6.274-10.681l-0.126-0.327v-311.936c-4.285 3.178-9.647 5.13-15.46 5.248l-0.028 0c-6.912 0-14.080-3.499-18.944-13.653-3.669-7.68-6.016-19.2-6.016-35.925 0-57.6 65.067-95.701 65.067-95.701z" fill="#f4f4f4"/></g></svg>